<?xml version="1.0" encoding="UTF-8"?>
<svg id="Layer_1" xmlns="http://www.w3.org/2000/svg" version="1.1" viewBox="0 0 64 64">
  <!-- Generator: Adobe Illustrator 29.5.1, SVG Export Plug-In . SVG Version: 2.1.0 Build 141)  -->
  <defs>
    <style>
      .st0 {
        fill: #4995ff;
      }

      .st1 {
        fill: #fdfdfd;
      }
    </style>
  </defs>
  <rect class="st0" width="64" height="64" rx="16" ry="16"/>
  <path class="st1" d="M49.14,34.86h-14.29v14.29c0,.76-.3,1.48-.84,2.02-.54.54-1.26.84-2.02.84s-1.48-.3-2.02-.84c-.54-.54-.84-1.26-.84-2.02v-14.29h-14.29c-.76,0-1.48-.3-2.02-.84-.54-.54-.84-1.26-.84-2.02s.3-1.48.84-2.02c.54-.54,1.26-.84,2.02-.84h14.29v-14.29c0-.76.3-1.48.84-2.02.54-.54,1.26-.84,2.02-.84s1.48.3,2.02.84c.54.54.84,1.26.84,2.02v14.29h14.29c.76,0,1.48.3,2.02.84.54.54.84,1.26.84,2.02s-.3,1.48-.84,2.02c-.54.54-1.26.84-2.02.84Z"/>
</svg>