<svg width="24" height="24" viewBox="0 0 24 24" fill="none" xmlns="http://www.w3.org/2000/svg">
<path d="M20.2489 11.2495C20.0497 11.2495 19.8587 11.1705 19.7178 11.0299C19.577 10.8893 19.4978 10.6986 19.4978 10.4997C19.4962 8.90922 18.8627 7.38435 17.7361 6.25972C16.6096 5.13509 15.0822 4.50258 13.4891 4.50099C13.2899 4.50099 13.0988 4.42199 12.958 4.28137C12.8171 4.14075 12.738 3.95003 12.738 3.75116C12.738 3.55229 12.8171 3.36156 12.958 3.22094C13.0988 3.08032 13.2899 3.00132 13.4891 3.00132C15.4804 3.0035 17.3896 3.79421 18.7977 5.19995C20.2058 6.60569 20.9978 8.51166 21 10.4997C21 10.6986 20.9209 10.8893 20.78 11.0299C20.6392 11.1705 20.4481 11.2495 20.2489 11.2495ZM17.9956 10.4997C17.9956 9.30647 17.5208 8.16213 16.6757 7.3184C15.8306 6.47467 14.6843 6.00067 13.4891 6.00067C13.2899 6.00067 13.0988 6.07967 12.958 6.22029C12.8171 6.36091 12.738 6.55163 12.738 6.7505C12.738 6.94937 12.8171 7.14009 12.958 7.28072C13.0988 7.42134 13.2899 7.50034 13.4891 7.50034C14.2859 7.50034 15.0501 7.81634 15.6135 8.37883C16.1769 8.94131 16.4935 9.70421 16.4935 10.4997C16.4935 10.6986 16.5726 10.8893 16.7134 11.0299C16.8543 11.1705 17.0453 11.2495 17.2445 11.2495C17.4437 11.2495 17.6348 11.1705 17.7756 11.0299C17.9165 10.8893 17.9956 10.6986 17.9956 10.4997ZM19.6353 19.6207L20.3188 18.8341C20.7538 18.3984 20.9981 17.8083 20.9981 17.1931C20.9981 16.5779 20.7538 15.9878 20.3188 15.5521C20.2955 15.5288 18.4884 14.1409 18.4884 14.1409C18.0546 13.7287 17.4785 13.4992 16.8797 13.5001C16.2809 13.5009 15.7055 13.732 15.2729 14.1454L13.8414 15.3496C12.6728 14.8668 11.6113 14.1583 10.7178 13.2647C9.82428 12.3712 9.1164 11.3102 8.63479 10.1428L9.83653 8.71807C10.2509 8.2863 10.4827 7.7117 10.4837 7.11373C10.4847 6.51575 10.2548 5.9404 9.84179 5.50727C9.84179 5.50727 8.45002 3.70542 8.42674 3.68217C7.9982 3.25158 7.41718 3.00658 6.80921 3.00013C6.20123 2.99368 5.61513 3.22628 5.17752 3.64768L4.31376 4.39752C-0.78915 10.3077 10.1993 21.1931 16.3147 20.9974C16.9322 21.001 17.5442 20.881 18.1145 20.6445C18.6849 20.4081 19.2019 20.06 19.6353 19.6207Z" fill="#4995FF"/>
</svg>
