<svg width="81" height="80" viewBox="0 0 81 80" fill="none" xmlns="http://www.w3.org/2000/svg">
<g clip-path="url(#clip0_5482_31592)">
<path d="M70.8008 0H44.1341C38.6208 0 34.1341 4.48667 34.1341 10V21.6633C34.8641 22.0533 35.5708 22.5 36.2441 23.0267L47.4674 31.8133V30.0033H54.1341V37.03L54.4041 37.24C58.4708 40.42 60.8008 45.2067 60.8008 50.3667V56.67H67.4674V63.3367H60.8008V80.0033H80.8008V10C80.8008 4.48667 76.3141 0 70.8008 0ZM54.1341 23.3333H47.4674V16.6667H54.1341V23.3333ZM67.4674 50H60.8008V43.3333H67.4674V50ZM67.4674 36.6667H60.8008V30H67.4674V36.6667ZM67.4674 23.3333H60.8008V16.6667H67.4674V23.3333ZM50.2974 42.49L32.1374 28.2733C29.3908 26.1233 25.5474 26.12 22.8008 28.2733L4.63745 42.4867C2.20078 44.3967 0.800781 47.27 0.800781 50.3633V80H54.1341V50.3633C54.1341 47.2667 52.7341 44.3967 50.2974 42.49ZM34.1341 63.3333H20.8008V50H34.1341V63.3333Z" fill="#4995FF"/>
</g>
<defs>
<clipPath id="clip0_5482_31592">
<rect width="80" height="80" fill="white" transform="translate(0.800781)"/>
</clipPath>
</defs>
</svg>
