<svg width="30" height="30" viewBox="0 0 30 30" fill="none" xmlns="http://www.w3.org/2000/svg">
<path d="M22.5 14.1667H18.3333C16.955 14.1667 15.8333 15.2883 15.8333 16.6667V22.5C15.8333 23.8783 16.955 25 18.3333 25H22.5C23.8783 25 25 23.8783 25 22.5V16.6667C25 15.2883 23.8783 14.1667 22.5 14.1667ZM21.6667 21.6667H19.1667C18.7058 21.6667 18.3333 21.2933 18.3333 20.8333C18.3333 20.3733 18.7058 20 19.1667 20H21.6667C22.1275 20 22.5 20.3733 22.5 20.8333C22.5 21.2933 22.1275 21.6667 21.6667 21.6667ZM21.6667 18.3308H19.1667C18.7058 18.3308 18.3333 17.9575 18.3333 17.4975C18.3333 17.0375 18.7058 16.6642 19.1667 16.6642H21.6667C22.1275 16.6642 22.5 17.0375 22.5 17.4975C22.5 17.9575 22.1275 18.3308 21.6667 18.3308ZM7.5 10C7.5 7.2425 9.7425 5 12.5 5C15.2575 5 17.5 7.2425 17.5 10C17.5 12.7575 15.2575 15 12.5 15C9.7425 15 7.5 12.7575 7.5 10ZM15.0217 25H5.83333C5.36917 25 4.99917 24.6167 5 24.1525C5.0075 20.0233 8.36917 16.6667 12.5 16.6667C13.0733 16.6667 13.63 16.7375 14.1667 16.86V22.5C14.1667 23.4417 14.4925 24.3017 15.0217 25Z" fill="#4995FF"/>
</svg>
