<svg width="30" height="30" viewBox="0 0 30 30" fill="none" xmlns="http://www.w3.org/2000/svg">
<path d="M24.3875 21.1499L23.5683 20.6783C23.6758 20.33 23.75 19.9676 23.75 19.5843C23.75 19.2011 23.675 18.8387 23.5683 18.4904L24.3875 18.0188C24.7867 17.7897 24.9242 17.2798 24.6933 16.8807C24.465 16.4824 23.9542 16.345 23.5558 16.5749L22.7417 17.044C22.2375 16.5008 21.5808 16.1058 20.8342 15.9359V15.0019C20.8342 14.542 20.4617 14.1687 20.0008 14.1687C19.54 14.1687 19.1675 14.542 19.1675 15.0019V15.9359C18.4208 16.1067 17.7633 16.5008 17.26 17.044L16.4458 16.5749C16.0467 16.345 15.5375 16.4824 15.3083 16.8807C15.0783 17.2798 15.2158 17.7889 15.6142 18.0188L16.4333 18.4904C16.3258 18.8387 16.2517 19.2011 16.2517 19.5843C16.2517 19.9676 16.3267 20.33 16.4333 20.6783L15.6142 21.1499C15.215 21.379 15.0775 21.8889 15.3083 22.288C15.5392 22.6896 16.0542 22.8212 16.4458 22.5938L17.26 22.1247C17.7642 22.6679 18.4233 23.062 19.1675 23.2345V24.1668C19.1675 24.6267 19.54 25 20.0008 25C20.4617 25 20.8342 24.6267 20.8342 24.1668V23.2345C21.5783 23.062 22.2383 22.6679 22.7417 22.1247L23.5558 22.5938C23.9475 22.8212 24.4625 22.6904 24.6933 22.288C24.9233 21.8889 24.7858 21.3798 24.3875 21.1499ZM20 20.8341C19.3108 20.8341 18.75 20.2734 18.75 19.5843C18.75 18.8953 19.3108 18.3346 20 18.3346C20.6892 18.3346 21.25 18.8953 21.25 19.5843C21.25 20.2734 20.6892 20.8341 20 20.8341ZM15.44 25H9.16667C6.86917 25 5 23.1312 5 20.8341V13.1056C5 11.7183 5.68667 10.4269 6.83667 9.65204L12.6692 5.71612C14.085 4.76129 15.915 4.76129 17.3308 5.71612L23.1642 9.65204C24.3133 10.4269 25 11.7175 25 13.1056V14.5686C23.7192 13.2922 21.9517 12.5023 20 12.5023C16.0883 12.5023 12.9167 15.6734 12.9167 19.5843C12.9167 21.7581 13.8983 23.7011 15.44 25Z" fill="#4995FF"/>
</svg>
