<svg width="42" height="42" viewBox="0 0 42 42" fill="none" xmlns="http://www.w3.org/2000/svg">
<path d="M21 2.625C19.8317 2.63782 18.6668 2.76174 17.5216 2.99592C17.6387 3.53093 17.6344 4.08539 17.509 4.61852C17.3837 5.15166 17.1404 5.64992 16.7971 6.07667C16.4538 6.50341 16.0193 6.84779 15.5254 7.08448C15.0315 7.32117 14.4908 7.44415 13.9431 7.44438C13.3278 7.43827 12.724 7.2774 12.1872 6.97659C11.6504 6.67579 11.198 6.24472 10.8715 5.72311C8.82916 7.07866 7.07866 8.82916 5.72311 10.8715C6.78288 11.5347 7.43241 12.6919 7.44438 13.9423C7.44392 14.9144 7.05744 15.8465 6.36989 16.5338C5.68235 17.221 4.75003 17.607 3.77792 17.607C3.51671 17.5933 3.25771 17.5518 3.00532 17.4831C2.76574 18.6404 2.63838 19.8182 2.625 21C2.6389 22.1818 2.76626 23.3595 3.00532 24.5169C3.25771 24.4482 3.51671 24.4067 3.77792 24.393C4.74988 24.393 5.68207 24.7789 6.36959 25.4659C7.05711 26.153 7.4437 27.0849 7.44438 28.0569C7.43827 28.6722 7.2774 29.276 6.97659 29.8128C6.67579 30.3496 6.24472 30.802 5.72311 31.1285C7.07857 33.1711 8.82908 34.9219 10.8715 36.2777C11.1978 35.7561 11.65 35.3249 12.1867 35.024C12.7233 34.723 13.3271 34.562 13.9423 34.5556C14.9144 34.5561 15.8465 34.9426 16.5338 35.6301C17.221 36.3176 17.607 37.25 17.607 38.2221C17.5933 38.4833 17.5518 38.7423 17.4831 38.9947C18.6403 39.234 19.818 39.3622 21 39.375C22.1818 39.3616 23.3596 39.2343 24.5169 38.9947C24.4482 38.7423 24.4067 38.4833 24.393 38.2221C24.393 37.2501 24.7789 36.3179 25.4659 35.6304C26.153 34.9429 27.0849 34.5563 28.0569 34.5556C28.6722 34.5618 29.2761 34.7228 29.8129 35.0238C30.3497 35.3247 30.8022 35.756 31.1285 36.2777C33.1712 34.922 34.922 33.1712 36.2777 31.1285C35.7561 30.8022 35.3249 30.35 35.024 29.8133C34.723 29.2767 34.562 28.6729 34.5556 28.0577C34.5561 27.0856 34.9426 26.1535 35.6301 25.4662C36.3176 24.779 37.25 24.393 38.2221 24.393C38.4842 24.4066 38.7417 24.4479 38.9947 24.5169C39.234 23.3597 39.3622 22.182 39.375 21C39.3732 19.8179 39.2572 18.6387 39.0289 17.4788C38.7655 17.5514 38.4949 17.5944 38.2221 17.607C37.2501 17.607 36.3179 17.2211 35.6304 16.5341C34.9429 15.847 34.5563 14.9151 34.5556 13.9431C34.5625 13.3212 34.7274 12.7112 35.035 12.1706C35.3425 11.6299 35.7825 11.1764 36.3136 10.8527C34.955 8.80222 33.1984 7.04538 31.1481 5.68636C30.8244 6.21747 30.3709 6.65749 29.8303 6.96504C29.2896 7.27258 28.6797 7.43754 28.0577 7.44438C27.0856 7.44392 26.1535 7.05744 25.4662 6.36989C24.779 5.68235 24.393 4.75003 24.393 3.77792C24.4056 3.50507 24.4486 3.23446 24.5212 2.97113C23.3613 2.74276 22.1821 2.62685 21 2.625Z" stroke="#FDFDFD" stroke-width="1.96875" stroke-linecap="round" stroke-linejoin="round"/>
<path d="M29.9724 13.922L26.2116 17.6827C26.1528 17.7418 26.0828 17.7887 26.0058 17.8207C25.9288 17.8527 25.8462 17.8692 25.7628 17.8692C25.6794 17.8692 25.5968 17.8527 25.5197 17.8207C25.4427 17.7887 25.3728 17.7418 25.3139 17.6827L24.3146 16.6835C24.2555 16.6246 24.2086 16.5547 24.1766 16.4776C24.1446 16.4006 24.1282 16.318 24.1282 16.2346C24.1282 16.1512 24.1446 16.0686 24.1766 15.9916C24.2086 15.9145 24.2555 15.8446 24.3146 15.7857L28.0631 12.0372C26.9633 11.3626 25.6688 11.077 24.3872 11.2261C23.1056 11.3753 21.9113 11.9506 20.9958 12.8597C20.2315 13.6262 19.6987 14.5927 19.4587 15.6482C19.2186 16.7037 19.281 17.8055 19.6386 18.8272L11.9299 26.536C10.9359 27.53 10.9228 29.1181 11.901 30.0972C12.8793 31.0746 14.4674 31.0615 15.4623 30.0666L23.1693 22.3596C24.1912 22.7176 25.2933 22.7801 26.3492 22.5401C27.4051 22.3 28.3718 21.7671 29.1385 21.0025C30.0527 20.0876 30.6323 18.8915 30.7837 17.607C30.9351 16.3225 30.6488 15.0244 29.9724 13.922Z" stroke="#FDFDFD" stroke-width="1.3125" stroke-linecap="round" stroke-linejoin="round"/>
</svg>
