<svg width="42" height="42" viewBox="0 0 42 42" fill="none" xmlns="http://www.w3.org/2000/svg">
<path d="M23.6164 35C23.6164 35 25.3664 35 27.1164 38.5C27.1164 38.5 32.6761 29.75 37.6164 28M12.2414 28H19.2414M12.2414 19.25H26.2414M11.3664 6.125C8.64337 6.20725 7.02112 6.51 5.89762 7.6335C4.35937 9.1735 4.35938 11.6497 4.35938 16.604V27.9895C4.35938 32.9455 4.35937 35.4218 5.89762 36.9618C7.43412 38.5 9.91037 38.5 14.8594 38.5H19.2344M27.1024 6.125C29.8254 6.20725 31.4494 6.51 32.5711 7.6335C34.1111 9.1735 34.1111 11.6497 34.1111 16.604V23.625" stroke="white" stroke-width="2.625" stroke-linecap="round" stroke-linejoin="round"/>
<path d="M11.3594 6.5625C11.3594 4.872 12.7314 3.5 14.4219 3.5H24.0469C24.8591 3.5 25.6381 3.82266 26.2124 4.39699C26.7867 4.97132 27.1094 5.75027 27.1094 6.5625C27.1094 7.37473 26.7867 8.15368 26.2124 8.72801C25.6381 9.30234 24.8591 9.625 24.0469 9.625H14.4219C13.6097 9.625 12.8307 9.30234 12.2564 8.72801C11.682 8.15368 11.3594 7.37473 11.3594 6.5625Z" stroke="white" stroke-width="2.625" stroke-linecap="round" stroke-linejoin="round"/>
</svg>
