<svg width="30" height="30" viewBox="0 0 30 30" fill="none" xmlns="http://www.w3.org/2000/svg">
<path d="M10.9087 22.0479C11.4512 22.0479 11.9715 21.8324 12.3551 21.4488C12.7387 21.0652 12.9542 20.545 12.9542 20.0025C12.9542 19.46 12.7387 18.9397 12.3551 18.5561C11.9715 18.1725 11.4512 17.957 10.9087 17.957C10.3662 17.957 9.84598 18.1725 9.46238 18.5561C9.07878 18.9397 8.86328 19.46 8.86328 20.0025C8.86328 20.545 9.07878 21.0652 9.46238 21.4488C9.84598 21.8324 10.3662 22.0479 10.9087 22.0479ZM21.136 22.0479C21.6785 22.0479 22.1988 21.8324 22.5824 21.4488C22.966 21.0652 23.1815 20.545 23.1815 20.0025C23.1815 19.46 22.966 18.9397 22.5824 18.5561C22.1988 18.1725 21.6785 17.957 21.136 17.957C20.5935 17.957 20.0733 18.1725 19.6897 18.5561C19.3061 18.9397 19.0906 19.46 19.0906 20.0025C19.0906 20.545 19.3061 21.0652 19.6897 21.4488C20.0733 21.8324 20.5935 22.0479 21.136 22.0479Z" stroke="#0B262F" strokeWidth="1.63636" strokeMiterlimit="1.5" strokeLinecap="round" strokeLinejoin="round"/>
<path d="M13.0057 20H18.0682V9.36364C18.0682 9.20089 18.0035 9.04481 17.8885 8.92973C17.7734 8.81465 17.6173 8.75 17.4545 8.75H3.75M8.50568 20H6.40909C6.32851 20 6.24871 19.9841 6.17426 19.9533C6.09981 19.9225 6.03217 19.8773 5.97518 19.8203C5.9182 19.7633 5.873 19.6956 5.84216 19.6212C5.81133 19.5467 5.79545 19.4669 5.79545 19.3864V14.375" stroke="#0B262F" strokeWidth="1.63636" strokeLinecap="round"/>
<path d="M4.77344 11.8203H8.86435" stroke="#0B262F" strokeWidth="1.63636" strokeLinecap="round" strokeLinejoin="round"/>
<path d="M18.0664 11.8203H23.8039C23.9225 11.8203 24.0386 11.8547 24.138 11.9194C24.2375 11.984 24.3161 12.076 24.3644 12.1844L26.195 16.3039C26.2299 16.3822 26.248 16.4668 26.2482 16.5525V19.3885C26.2482 19.4691 26.2324 19.5489 26.2015 19.6233C26.1707 19.6978 26.1255 19.7654 26.0685 19.8224C26.0115 19.8794 25.9439 19.9246 25.8694 19.9554C25.795 19.9863 25.7152 20.0021 25.6346 20.0021H23.6914M18.0664 20.0021H19.0891" stroke="#0B262F" strokeWidth="1.63636" strokeLinecap="round"/>
</svg>
