<svg width="60" height="60" viewBox="0 0 60 60" fill="none" xmlns="http://www.w3.org/2000/svg">
<path d="M30 -0.00366211C32.8552 -0.00366211 35.1724 2.31358 35.1724 5.16875V24.8239H54.8276C56.1994 24.8239 57.515 25.3689 58.485 26.3389C59.4551 27.3089 60 28.6245 60 29.9963C60 31.3681 59.4551 32.6838 58.485 33.6538C57.515 34.6238 56.1994 35.1688 54.8276 35.1688H35.1724V54.8239C35.1724 56.1957 34.6275 57.5114 33.6574 58.4814C32.6874 59.4514 31.3718 59.9963 30 59.9963C28.6282 59.9963 27.3126 59.4514 26.3426 58.4814C25.3725 57.5114 24.8276 56.1957 24.8276 54.8239V35.1688H5.17241C3.8006 35.1688 2.48498 34.6238 1.51496 33.6538C0.544949 32.6838 0 31.3681 0 29.9963C0 28.6245 0.544949 27.3089 1.51496 26.3389C2.48498 25.3689 3.8006 24.8239 5.17241 24.8239H24.8276V5.16875C24.8276 2.31358 27.1448 -0.00366211 30 -0.00366211Z" fill="#C0DAFF"/>
</svg>
