<svg width="24" height="24" viewBox="0 0 24 24" fill="none" xmlns="http://www.w3.org/2000/svg">
<path d="M17 8.66667C15.1617 8.66667 13.6667 7.17167 13.6667 5.33333C13.6667 3.495 15.1617 2 17 2C18.8383 2 20.3333 3.495 20.3333 5.33333C20.3333 7.17167 18.8383 8.66667 17 8.66667ZM12 14.5C10.1617 14.5 8.66667 13.005 8.66667 11.1667C8.66667 9.32833 10.1617 7.83333 12 7.83333C13.8383 7.83333 15.3333 9.32833 15.3333 11.1667C15.3333 13.005 13.8383 14.5 12 14.5ZM7 8.66667C5.16167 8.66667 3.66667 7.17167 3.66667 5.33333C3.66667 3.495 5.16167 2 7 2C8.83833 2 10.3333 3.495 10.3333 5.33333C10.3333 7.17167 8.83833 8.66667 7 8.66667ZM21.1667 20.3333H17C17 17.5758 14.7575 15.3333 12 15.3333C9.2425 15.3333 7 17.5758 7 20.3333H2.83333C2.3725 20.3333 2 20.7058 2 21.1667C2 21.6275 2.3725 22 2.83333 22H21.1667C21.6275 22 22 21.6275 22 21.1667C22 20.7058 21.6275 20.3333 21.1667 20.3333ZM2.83333 16.1667H6.80333C7.26833 15.5875 7.82833 15.09 8.45833 14.6925C7.5575 13.7875 7 12.5417 7 11.1667C7 10.8833 7.02917 10.6075 7.075 10.3375C7.05 10.3375 7.02583 10.3333 7 10.3333C4.2425 10.3333 2 12.5758 2 15.3333C2 15.7942 2.3725 16.1667 2.83333 16.1667ZM22 15.3333C22 12.5758 19.7575 10.3333 17 10.3333C16.975 10.3333 16.9508 10.3367 16.925 10.3375C16.9708 10.6083 17 10.8842 17 11.1667C17 12.5417 16.4425 13.7875 15.5417 14.6925C16.1717 15.09 16.7317 15.5875 17.1967 16.1667H21.1667C21.6275 16.1667 22 15.7942 22 15.3333Z" fill="#4995FF"/>
</svg>
