<svg width="26" height="26" viewBox="0 0 26 26" fill="none" xmlns="http://www.w3.org/2000/svg">
<path d="M13 10.3333C13.6128 10.3333 14.2197 10.2126 14.7859 9.97811C15.352 9.74358 15.8665 9.39984 16.2998 8.9665C16.7332 8.53316 17.0769 8.01871 17.3114 7.45252C17.546 6.88634 17.6667 6.2795 17.6667 5.66667C17.6667 5.05383 17.546 4.447 17.3114 3.88081C17.0769 3.31462 16.7332 2.80018 16.2998 2.36684C15.8665 1.9335 15.352 1.58975 14.7859 1.35523C14.2197 1.12071 13.6128 1 13 1C11.7623 1 10.5753 1.49167 9.70017 2.36684C8.825 3.24201 8.33333 4.42899 8.33333 5.66667C8.33333 6.90434 8.825 8.09133 9.70017 8.9665C10.5753 9.84167 11.7623 10.3333 13 10.3333ZM1 24.2V25H25V24.2C25 21.2133 25 19.72 24.4187 18.5787C23.9073 17.5752 23.0915 16.7593 22.088 16.248C20.9467 15.6667 19.4533 15.6667 16.4667 15.6667H9.53333C6.54667 15.6667 5.05333 15.6667 3.912 16.248C2.90851 16.7593 2.09265 17.5752 1.58133 18.5787C1 19.72 1 21.2133 1 24.2Z" stroke="#403D38" strokeWidth="2" strokeLinecap="round" strokeLinejoin="round"/>
</svg>
